<?xml version="1.0" standalone="no"?><!DOCTYPE svg PUBLIC "-//W3C//DTD SVG 1.1//EN" "http://www.w3.org/Graphics/SVG/1.1/DTD/svg11.dtd"><svg t="1505822060739" class="icon" style="" viewBox="0 0 1024 1024" version="1.1" xmlns="http://www.w3.org/2000/svg" p-id="2594" xmlns:xlink="http://www.w3.org/1999/xlink" width="64" height="64"><defs><style type="text/css"></style></defs><path d="M512 51.2a460.8 460.8 0 1 0 460.8 460.8A460.8 460.8 0 0 0 512 51.2z m0 870.4a409.6 409.6 0 1 1 409.6-409.6 409.6 409.6 0 0 1-409.6 409.6z" p-id="2595" fill="#000000"></path><path d="M729.344 294.656a25.6 25.6 0 0 0-36.096 0L512 475.904l-180.992-180.992a25.6 25.6 0 0 0-36.096 36.096L475.904 512l-180.992 180.992a25.6 25.6 0 1 0 36.096 36.096L512 548.096l180.992 180.992a25.6 25.6 0 0 0 36.096-36.096L548.096 512l180.992-180.992a25.6 25.6 0 0 0 0.256-36.352z" p-id="2596" fill="#000000"></path></svg>