<?xml version="1.0" standalone="no"?><!DOCTYPE svg PUBLIC "-//W3C//DTD SVG 1.1//EN" "http://www.w3.org/Graphics/SVG/1.1/DTD/svg11.dtd"><svg class="icon" width="200px" height="199.42px" viewBox="0 0 1027 1024" version="1.1" xmlns="http://www.w3.org/2000/svg"><path fill="#ffffff" d="M827.392 467.456c19.456 16.896 43.52 28.672 70.144 33.28V931.84c0 19.456-15.872 35.328-35.328 35.328H160.256c-19.456 0-35.328-15.872-35.328-35.328V500.736c26.624-4.096 50.688-15.36 70.144-31.744v229.376H827.392V467.456z m55.808-331.264c5.12 0 9.728 1.024 14.336 2.56v-39.424c0-19.456-15.872-35.328-35.328-35.328H160.256c-19.456 0-35.328 15.872-35.328 35.328v39.936c5.12-2.048 10.752-3.072 15.872-3.072h742.4z m0 41.984H141.312L0 329.728c0 56.32 46.08 102.4 102.4 102.4 11.776 0 23.04-2.048 33.28-5.632 0.512 0 1.024-0.512 1.024-0.512 3.072-1.024 6.656-2.56 9.216-4.096 0.512 0 1.024-0.512 1.024-0.512 3.072-1.536 6.144-3.072 9.216-5.12 0 0 0.512 0 0.512-0.512 12.8-8.192 24.064-19.456 32.256-32.768v-0.512c2.048-3.072 3.584-6.656 5.632-10.24 6.144-12.8 9.728-27.648 9.728-43.008 0 56.32 46.08 102.4 102.4 102.4s102.4-46.08 102.4-102.4c0 56.32 46.08 102.4 102.4 102.4s102.4-46.08 102.4-102.4c0 56.32 45.568 102.4 102.4 102.4 56.32 0 102.4-46.08 102.4-102.4 0 17.92 4.608 34.816 12.8 49.664 0.512 0.512 1.024 1.536 1.024 2.048 1.536 2.56 3.072 5.12 5.12 7.68 0.512 0.512 1.024 1.536 1.536 2.56 1.536 2.048 3.584 4.608 5.632 6.656 0.512 0.512 1.024 1.024 1.536 2.048 2.56 2.56 5.12 5.12 7.68 7.168 0 0 0 0.512 0.512 0.512 9.216 7.68 19.456 13.824 30.72 17.92h0.512c3.584 1.536 7.168 2.56 11.264 3.584 7.68 2.048 15.872 3.072 24.064 3.072 56.832 0 102.4-46.08 102.4-102.4l-140.288-151.552z" /></svg>